<?xml version="1.0" encoding="UTF-8"?>
<!DOCTYPE svg PUBLIC "-//W3C//DTD SVG 1.1//EN" "http://www.w3.org/Graphics/SVG/1.1/DTD/svg11.dtd">
<svg xmlns="http://www.w3.org/2000/svg" version="1.1" width="192px" height="256px" style="shape-rendering:geometricPrecision; text-rendering:geometricPrecision; image-rendering:optimizeQuality; fill-rule:evenodd; clip-rule:evenodd" xmlns:xlink="http://www.w3.org/1999/xlink">
<g><path style="opacity:1" fill="#484c53" d="M 132.5,81.5 C 112.618,78.8412 92.6184,76.8412 72.5,75.5C 66.6057,75.0087 61.939,77.0087 58.5,81.5C 57.095,72.7455 60.7616,67.9122 69.5,67C 89.297,66.0271 108.964,67.1938 128.5,70.5C 129.548,74.2644 130.881,77.931 132.5,81.5 Z"/></g>
<g><path style="opacity:1" fill="#3d3e41" d="M 132.5,81.5 C 136.213,79.2917 140.046,77.2917 144,75.5C 152.655,77.4644 155.655,82.7977 153,91.5C 150.18,102.778 147.68,114.112 145.5,125.5C 143.072,131.185 141.239,137.185 140,143.5C 139.252,145.751 137.752,147.084 135.5,147.5C 131.996,147.208 130.329,145.208 130.5,141.5C 132.993,131.863 135.326,122.197 137.5,112.5C 137,112.167 136.5,111.833 136,111.5C 117.75,114.438 99.5829,113.938 81.5,110C 77.3837,108.795 73.3837,107.295 69.5,105.5C 68.6677,115.817 68.1677,126.151 68,136.5C 67.2917,137.381 66.4584,138.047 65.5,138.5C 62.4532,139.145 60.2865,138.145 59,135.5C 58.5005,129.175 58.3338,122.842 58.5,116.5C 58.5,104.833 58.5,93.1667 58.5,81.5C 61.939,77.0087 66.6057,75.0087 72.5,75.5C 92.6184,76.8412 112.618,78.8412 132.5,81.5 Z"/></g>
<g><path style="opacity:1" fill="#bd7857" d="M 135.5,147.5 C 133.528,150.179 133.195,153.012 134.5,156C 132.162,157.508 131.162,159.675 131.5,162.5C 129.463,163.846 127.463,165.18 125.5,166.5C 120.453,166.663 115.453,166.329 110.5,165.5C 98.4745,164.238 86.4745,162.905 74.5,161.5C 72.5648,160.85 70.5648,160.517 68.5,160.5C 66.3792,160.675 64.3792,160.341 62.5,159.5C 63.4922,156.221 63.6588,152.888 63,149.5C 59.827,146.25 59.327,142.917 61.5,139.5C 63.099,139.768 64.4324,139.434 65.5,138.5C 66.4584,138.047 67.2917,137.381 68,136.5C 68.1677,126.151 68.6677,115.817 69.5,105.5C 73.3837,107.295 77.3837,108.795 81.5,110C 99.5829,113.938 117.75,114.438 136,111.5C 136.5,111.833 137,112.167 137.5,112.5C 135.326,122.197 132.993,131.863 130.5,141.5C 130.329,145.208 131.996,147.208 135.5,147.5 Z"/></g>
<g><path style="opacity:1" fill="#424143" d="M 90.5,124.5 C 86.6403,123.196 82.6403,122.529 78.5,122.5C 77.4324,121.566 76.099,121.232 74.5,121.5C 74.5,119.833 74.5,118.167 74.5,116.5C 82.1437,116.551 89.4771,117.884 96.5,120.5C 95.7542,121.736 95.4208,123.07 95.5,124.5C 93.8333,124.5 92.1667,124.5 90.5,124.5 Z"/></g>
<g><path style="opacity:1" fill="#434143" d="M 123.5,127.5 C 119.519,126.979 115.519,126.646 111.5,126.5C 110.167,126.5 108.833,126.5 107.5,126.5C 107.833,124.5 108.167,122.5 108.5,120.5C 115.48,121.165 122.48,121.498 129.5,121.5C 129.5,123.5 129.5,125.5 129.5,127.5C 127.5,127.5 125.5,127.5 123.5,127.5 Z"/></g>
<g><path style="opacity:1" fill="#f4f1f0" d="M 78.5,122.5 C 82.6403,122.529 86.6403,123.196 90.5,124.5C 92.8763,133.955 89.2096,138.455 79.5,138C 74.6473,133.042 74.3139,127.875 78.5,122.5 Z"/></g>
<g><path style="opacity:1" fill="#444548" d="M 83.5,124.5 C 89.1558,124.867 90.9891,127.867 89,133.5C 84.2083,136.931 81.375,135.764 80.5,130C 80.8627,127.808 81.8627,125.974 83.5,124.5 Z"/></g>
<g><path style="opacity:1" fill="#f2efed" d="M 111.5,126.5 C 115.519,126.646 119.519,126.979 123.5,127.5C 127.47,137.364 124.137,142.197 113.5,142C 107.885,137.399 107.219,132.232 111.5,126.5 Z"/></g>
<g><path style="opacity:1" fill="#3f4144" d="M 112.5,128.5 C 116.815,127.683 119.149,129.349 119.5,133.5C 119.167,137.989 116.833,139.489 112.5,138C 109.888,134.836 109.888,131.669 112.5,128.5 Z"/></g>
<g><path style="opacity:1" fill="#955436" d="M 104.5,142.5 C 101.098,142.658 97.7644,142.324 94.5,141.5C 91.7148,136.736 93.2148,134.069 99,133.5C 105.882,133.828 107.715,136.828 104.5,142.5 Z"/></g>
<g><path style="opacity:1" fill="#ab6c4f" d="M 58.5,116.5 C 58.3338,122.842 58.5005,129.175 59,135.5C 60.2865,138.145 62.4532,139.145 65.5,138.5C 64.4324,139.434 63.099,139.768 61.5,139.5C 59.327,142.917 59.827,146.25 63,149.5C 63.6588,152.888 63.4922,156.221 62.5,159.5C 61.5326,158.194 60.1993,157.527 58.5,157.5C 59.6805,155.307 60.6805,152.974 61.5,150.5C 47.6143,146.012 43.4477,137.012 49,123.5C 51.5014,120.152 54.6681,117.818 58.5,116.5 Z"/></g>
<g><path style="opacity:1" fill="#3f3f41" d="M 94.5,141.5 C 97.7644,142.324 101.098,142.658 104.5,142.5C 111.067,144.059 114.734,148.059 115.5,154.5C 109.348,154.973 103.515,153.973 98,151.5C 92.4544,152.896 86.9544,152.729 81.5,151C 80.4439,146.328 82.4439,143.328 87.5,142C 89.8098,141.503 92.1432,141.337 94.5,141.5 Z"/></g>
<g><path style="opacity:1" fill="#a96b4e" d="M 145.5,125.5 C 147.811,128.663 149.978,131.997 152,135.5C 154.421,149.047 148.921,156.38 135.5,157.5C 134.094,157.973 133.427,158.973 133.5,160.5C 132.662,160.842 132.328,161.508 132.5,162.5C 132.167,162.5 131.833,162.5 131.5,162.5C 131.162,159.675 132.162,157.508 134.5,156C 133.195,153.012 133.528,150.179 135.5,147.5C 137.752,147.084 139.252,145.751 140,143.5C 141.239,137.185 143.072,131.185 145.5,125.5 Z"/></g>
<g><path style="opacity:0.012" fill="#000000" d="M 135.5,157.5 C 135.433,158.959 135.766,160.292 136.5,161.5C 135.391,161.443 134.391,161.11 133.5,160.5C 133.427,158.973 134.094,157.973 135.5,157.5 Z"/></g>
<g><path style="opacity:1" fill="#e5f0f9" d="M 57.5,161.5 C 57.5,167.167 57.5,172.833 57.5,178.5C 54.4316,175.378 52.0983,171.711 50.5,167.5C 52.8333,165.5 55.1667,163.5 57.5,161.5 Z"/></g>
<g><path style="opacity:1" fill="#814b31" d="M 74.5,161.5 C 86.4745,162.905 98.4745,164.238 110.5,165.5C 105.729,168.726 100.729,171.726 95.5,174.5C 88.0667,170.709 81.0667,166.376 74.5,161.5 Z"/></g>
<g><path style="opacity:1" fill="#e3edf6" d="M 133.5,160.5 C 134.391,161.11 135.391,161.443 136.5,161.5C 138.354,165.221 140.687,168.554 143.5,171.5C 139.896,174.602 136.396,177.935 133,181.5C 132.517,180.552 132.351,179.552 132.5,178.5C 132.5,173.167 132.5,167.833 132.5,162.5C 132.328,161.508 132.662,160.842 133.5,160.5 Z"/></g>
<g><path style="opacity:1" fill="#bacbd9" d="M 50.5,167.5 C 52.0983,171.711 54.4316,175.378 57.5,178.5C 59.0217,184.047 59.6884,189.714 59.5,195.5C 57.4098,196.791 56.0764,196.124 55.5,193.5C 54.9213,190.669 53.588,188.336 51.5,186.5C 48.8899,181.233 45.8899,176.233 42.5,171.5C 44.0886,168.837 46.4219,166.837 49.5,165.5C 50.2975,165.957 50.6309,166.624 50.5,167.5 Z"/></g>
<g><path style="opacity:1" fill="#becedc" d="M 149.5,177.5 C 145.167,181.167 141.167,185.167 137.5,189.5C 135.167,191.5 132.833,193.5 130.5,195.5C 130.5,195.167 130.5,194.833 130.5,194.5C 130.782,188.979 131.449,183.646 132.5,178.5C 132.351,179.552 132.517,180.552 133,181.5C 136.396,177.935 139.896,174.602 143.5,171.5C 143.897,170.475 144.563,170.308 145.5,171C 147,172.5 148.5,174 150,175.5C 150.692,176.437 150.525,177.103 149.5,177.5 Z"/></g>
<g><path style="opacity:1" fill="#ba7656" d="M 42.5,171.5 C 45.8899,176.233 48.8899,181.233 51.5,186.5C 45.2669,189.278 38.9335,192.111 32.5,195C 19.4009,200.683 10.0676,196.85 4.5,183.5C 5.66508,182.416 6.99842,181.583 8.5,181C 7.5842,180.722 6.91753,180.222 6.5,179.5C 9.92218,176.889 13.2555,174.056 16.5,171C 18.5,170.333 20.5,170.333 22.5,171C 26.6047,172.219 30.6047,173.719 34.5,175.5C 37.7407,175.1 40.4074,173.767 42.5,171.5 Z"/></g>
<g><path style="opacity:1" fill="#e69b5d" d="M 131.5,162.5 C 131.833,162.5 132.167,162.5 132.5,162.5C 132.5,167.833 132.5,173.167 132.5,178.5C 131.449,183.646 130.782,188.979 130.5,194.5C 128.552,196.32 127.552,198.654 127.5,201.5C 118.768,201.383 110.102,200.717 101.5,199.5C 101.5,198.833 101.167,198.5 100.5,198.5C 100.5,194.5 100.5,190.5 100.5,186.5C 102.753,183.904 105.086,181.237 107.5,178.5C 113.537,174.487 119.537,170.487 125.5,166.5C 127.463,165.18 129.463,163.846 131.5,162.5 Z"/></g>
<g><path style="opacity:1" fill="#a3b3c1" d="M 68.5,160.5 C 70.5648,160.517 72.5648,160.85 74.5,161.5C 81.0667,166.376 88.0667,170.709 95.5,174.5C 100.729,171.726 105.729,168.726 110.5,165.5C 115.453,166.329 120.453,166.663 125.5,166.5C 119.537,170.487 113.537,174.487 107.5,178.5C 105.072,179.212 102.739,180.212 100.5,181.5C 98.3674,179.909 96.7007,177.909 95.5,175.5C 94.2339,177.71 92.7339,179.71 91,181.5C 87.2075,179.354 83.3742,177.354 79.5,175.5C 74.8509,172.526 70.1843,169.526 65.5,166.5C 66.5588,164.466 67.5588,162.466 68.5,160.5 Z"/></g>
<g><path style="opacity:1" fill="#e79c5e" d="M 58.5,157.5 C 60.1993,157.527 61.5326,158.194 62.5,159.5C 64.3792,160.341 66.3792,160.675 68.5,160.5C 67.5588,162.466 66.5588,164.466 65.5,166.5C 70.1843,169.526 74.8509,172.526 79.5,175.5C 82.1662,178.999 85.3329,181.999 89,184.5C 89.4986,188.152 89.6653,191.818 89.5,195.5C 89.5,196.833 89.5,198.167 89.5,199.5C 89.5,200.167 89.1667,200.5 88.5,200.5C 87.9032,199.861 87.0698,199.528 86,199.5C 77.5617,200.948 69.0617,201.615 60.5,201.5C 60.1667,199.5 59.8333,197.5 59.5,195.5C 59.6884,189.714 59.0217,184.047 57.5,178.5C 57.5,172.833 57.5,167.167 57.5,161.5C 57.4326,160.041 57.7659,158.708 58.5,157.5 Z"/></g>
<g><path style="opacity:1" fill="#ba7555" d="M 149.5,177.5 C 151.089,180.163 153.422,182.163 156.5,183.5C 161.988,179.802 167.988,178.636 174.5,180C 176.966,182.479 179.299,184.979 181.5,187.5C 181.389,188.117 181.056,188.617 180.5,189C 182.521,189.401 183.855,190.568 184.5,192.5C 182.047,200.794 176.547,205.128 168,205.5C 155.509,204.083 145.342,198.75 137.5,189.5C 141.167,185.167 145.167,181.167 149.5,177.5 Z"/></g>
<g><path style="opacity:1" fill="#d0d9e0" d="M 79.5,175.5 C 83.3742,177.354 87.2075,179.354 91,181.5C 92.7339,179.71 94.2339,177.71 95.5,175.5C 96.7007,177.909 98.3674,179.909 100.5,181.5C 102.739,180.212 105.072,179.212 107.5,178.5C 105.086,181.237 102.753,183.904 100.5,186.5C 97.1667,186.5 93.8333,186.5 90.5,186.5C 90.81,189.713 90.4767,192.713 89.5,195.5C 89.6653,191.818 89.4986,188.152 89,184.5C 85.3329,181.999 82.1662,178.999 79.5,175.5 Z"/></g>
<g><path style="opacity:1" fill="#a76b50" d="M 6.5,179.5 C 6.91753,180.222 7.5842,180.722 8.5,181C 6.99842,181.583 5.66508,182.416 4.5,183.5C 10.0676,196.85 19.4009,200.683 32.5,195C 38.9335,192.111 45.2669,189.278 51.5,186.5C 53.588,188.336 54.9213,190.669 55.5,193.5C 46.7394,198.712 37.4061,202.879 27.5,206C 22.5,206.667 17.5,206.667 12.5,206C 8.69784,203.913 6.19784,200.746 5,196.5C 3.73177,192.195 2.56511,187.862 1.5,183.5C 2.15047,180.996 3.81714,179.663 6.5,179.5 Z"/></g>
<g><path style="opacity:1" fill="#e4f0f9" d="M 100.5,186.5 C 100.5,190.5 100.5,194.5 100.5,198.5C 97.0381,199.482 93.3714,199.815 89.5,199.5C 89.5,198.167 89.5,196.833 89.5,195.5C 90.4767,192.713 90.81,189.713 90.5,186.5C 93.8333,186.5 97.1667,186.5 100.5,186.5 Z"/></g>
<g><path style="opacity:1" fill="#a86c50" d="M 181.5,187.5 C 184.877,187.339 186.877,188.839 187.5,192C 186.538,196.554 185.371,201.054 184,205.5C 182.073,210.428 178.573,213.594 173.5,215C 169.112,215.577 164.779,215.244 160.5,214C 156.167,212.333 151.833,210.667 147.5,209C 146.833,208 146.167,207 145.5,206C 140.331,202.978 135.331,199.811 130.5,196.5C 130.5,196.167 130.5,195.833 130.5,195.5C 132.833,193.5 135.167,191.5 137.5,189.5C 145.342,198.75 155.509,204.083 168,205.5C 176.547,205.128 182.047,200.794 184.5,192.5C 183.855,190.568 182.521,189.401 180.5,189C 181.056,188.617 181.389,188.117 181.5,187.5 Z"/></g>
<g><path style="opacity:1" fill="#bbcbdd" d="M 100.5,198.5 C 101.167,198.5 101.5,198.833 101.5,199.5C 101.616,202.86 101.949,206.193 102.5,209.5C 97.5,209.5 92.5,209.5 87.5,209.5C 87.9629,206.518 88.2962,203.518 88.5,200.5C 89.1667,200.5 89.5,200.167 89.5,199.5C 93.3714,199.815 97.0381,199.482 100.5,198.5 Z"/></g>
<g><path style="opacity:1" fill="#d18849" d="M 88.5,200.5 C 88.2962,203.518 87.9629,206.518 87.5,209.5C 79.8428,210.68 72.1761,211.68 64.5,212.5C 63.2502,212.423 62.4169,211.756 62,210.5C 61.4978,207.487 60.9978,204.487 60.5,201.5C 69.0617,201.615 77.5617,200.948 86,199.5C 87.0698,199.528 87.9032,199.861 88.5,200.5 Z"/></g>
<g><path style="opacity:1" fill="#d0884b" d="M 130.5,194.5 C 130.5,194.833 130.5,195.167 130.5,195.5C 130.5,195.833 130.5,196.167 130.5,196.5C 129.554,201.793 128.887,207.126 128.5,212.5C 127.167,212.5 125.833,212.5 124.5,212.5C 117.138,211.645 109.805,210.645 102.5,209.5C 101.949,206.193 101.616,202.86 101.5,199.5C 110.102,200.717 118.768,201.383 127.5,201.5C 127.552,198.654 128.552,196.32 130.5,194.5 Z"/></g>
<g><path style="opacity:1" fill="#6466be" d="M 87.5,209.5 C 92.5,209.5 97.5,209.5 102.5,209.5C 109.805,210.645 117.138,211.645 124.5,212.5C 123.915,217.515 123.248,222.515 122.5,227.5C 114.833,227.5 107.167,227.5 99.5,227.5C 99.5,230.833 99.5,234.167 99.5,237.5C 98.8333,237.5 98.1667,237.5 97.5,237.5C 98.7398,231.506 98.7398,225.506 97.5,219.5C 96.1667,219.5 94.8333,219.5 93.5,219.5C 92.2602,225.506 92.2602,231.506 93.5,237.5C 92.8333,237.5 92.1667,237.5 91.5,237.5C 91.5,234.167 91.5,230.833 91.5,227.5C 84.1667,227.5 76.8333,227.5 69.5,227.5C 69.8333,230.833 70.1667,234.167 70.5,237.5C 69.8333,237.5 69.1667,237.5 68.5,237.5C 68.6657,233.154 68.499,228.821 68,224.5C 66.6182,220.596 65.4515,216.596 64.5,212.5C 72.1761,211.68 79.8428,210.68 87.5,209.5 Z"/></g>
<g><path style="opacity:1" fill="#4b4da8" d="M 91.5,237.5 C 84.5,237.5 77.5,237.5 70.5,237.5C 70.1667,234.167 69.8333,230.833 69.5,227.5C 76.8333,227.5 84.1667,227.5 91.5,227.5C 91.5,230.833 91.5,234.167 91.5,237.5 Z"/></g>
<g><path style="opacity:1" fill="#4b4da8" d="M 122.5,227.5 C 122.5,230.833 122.5,234.167 122.5,237.5C 114.833,237.5 107.167,237.5 99.5,237.5C 99.5,234.167 99.5,230.833 99.5,227.5C 107.167,227.5 114.833,227.5 122.5,227.5 Z"/></g>
<g><path style="opacity:1" fill="#ececec" d="M 68.5,237.5 C 69.1667,237.5 69.8333,237.5 70.5,237.5C 77.5,237.5 84.5,237.5 91.5,237.5C 92.1667,237.5 92.8333,237.5 93.5,237.5C 93.5,241.5 93.5,245.5 93.5,249.5C 81.5,249.5 69.5,249.5 57.5,249.5C 61.1949,245.474 64.8616,241.474 68.5,237.5 Z"/></g>
<g><path style="opacity:1" fill="#ececec" d="M 97.5,237.5 C 98.1667,237.5 98.8333,237.5 99.5,237.5C 107.167,237.5 114.833,237.5 122.5,237.5C 126.138,241.474 129.805,245.474 133.5,249.5C 121.5,249.5 109.5,249.5 97.5,249.5C 97.5,245.5 97.5,241.5 97.5,237.5 Z"/></g>
<g><path style="opacity:1" fill="#c88955" d="M 57.5,249.5 C 69.5,249.5 81.5,249.5 93.5,249.5C 93.5,251.5 93.5,253.5 93.5,255.5C 81.5,255.5 69.5,255.5 57.5,255.5C 57.5,253.5 57.5,251.5 57.5,249.5 Z"/></g>
<g><path style="opacity:1" fill="#c88955" d="M 97.5,249.5 C 109.5,249.5 121.5,249.5 133.5,249.5C 133.5,251.5 133.5,253.5 133.5,255.5C 121.5,255.5 109.5,255.5 97.5,255.5C 97.5,253.5 97.5,251.5 97.5,249.5 Z"/></g>
</svg>
