<?xml version="1.0" encoding="UTF-8"?>
<!DOCTYPE svg PUBLIC "-//W3C//DTD SVG 1.1//EN" "http://www.w3.org/Graphics/SVG/1.1/DTD/svg11.dtd">
<svg xmlns="http://www.w3.org/2000/svg" version="1.1" width="192px" height="256px" style="shape-rendering:geometricPrecision; text-rendering:geometricPrecision; image-rendering:optimizeQuality; fill-rule:evenodd; clip-rule:evenodd" xmlns:xlink="http://www.w3.org/1999/xlink">
<g><path style="opacity:0.995" fill="#bed3e4" d="M 132.5,89.5 C 130.909,90.2189 129.409,91.2189 128,92.5C 127.503,96.5239 127.669,100.524 128.5,104.5C 126.097,104.552 123.764,104.219 121.5,103.5C 115.637,90.3745 105.97,86.5411 92.5,92C 89.9614,94.3697 87.6281,96.8697 85.5,99.5C 83.5,99.5 81.5,99.5 79.5,99.5C 80.1876,95.7786 81.1876,92.112 82.5,88.5C 81.9047,86.2385 80.5714,84.5719 78.5,83.5C 81.4393,80.0818 85.106,77.5818 89.5,76C 107.174,70.8202 121.507,75.3202 132.5,89.5 Z"/></g>
<g><path style="opacity:1" fill="#518dbd" d="M 78.5,83.5 C 80.5714,84.5719 81.9047,86.2385 82.5,88.5C 81.1876,92.112 80.1876,95.7786 79.5,99.5C 81.5,99.5 83.5,99.5 85.5,99.5C 97.4325,101.265 109.433,102.599 121.5,103.5C 123.764,104.219 126.097,104.552 128.5,104.5C 127.669,100.524 127.503,96.5239 128,92.5C 129.409,91.2189 130.909,90.2189 132.5,89.5C 134.903,89.393 136.736,90.393 138,92.5C 138.945,96.1141 139.612,99.7808 140,103.5C 141.833,105 143.667,106.5 145.5,108C 144.243,113.526 142.91,119.026 141.5,124.5C 151.638,130.069 154.805,138.403 151,149.5C 148.506,153.496 145.006,156.163 140.5,157.5C 138.076,157.808 135.743,157.474 133.5,156.5C 135.149,151.238 136.482,145.904 137.5,140.5C 125.978,144.023 118.978,151.69 116.5,163.5C 115.121,164.609 113.455,165.276 111.5,165.5C 100.11,164.444 88.7767,163.11 77.5,161.5C 78.8855,148.9 73.8855,139.9 62.5,134.5C 61.8332,139.651 61.1665,144.651 60.5,149.5C 47.1557,145.139 43.3224,136.472 49,123.5C 52.1602,120.006 55.9936,117.672 60.5,116.5C 61.4967,109.866 61.83,103.2 61.5,96.5C 63.4672,96.2606 65.3005,96.5939 67,97.5C 68.4715,93.4189 70.1382,89.4189 72,85.5C 73.7889,83.771 75.9556,83.1043 78.5,83.5 Z"/></g>
<g><path style="opacity:1" fill="#fcfdfd" d="M 121.5,103.5 C 109.433,102.599 97.4325,101.265 85.5,99.5C 87.6281,96.8697 89.9614,94.3697 92.5,92C 105.97,86.5411 115.637,90.3745 121.5,103.5 Z"/></g>
<g><path style="opacity:1" fill="#497da5" d="M 97.5,111.5 C 111.334,111.166 117.834,117.832 117,131.5C 112.491,142.339 104.658,145.839 93.5,142C 85.1852,135.714 83.3518,127.881 88,118.5C 90.529,115.115 93.6956,112.782 97.5,111.5 Z"/></g>
<g><path style="opacity:1" fill="#f8c919" d="M 95.5,117.5 C 104.178,115.101 109.845,118.101 112.5,126.5C 111.568,135.633 106.568,139.467 97.5,138C 91.3974,134.96 89.2307,130.126 91,123.5C 92.332,121.34 93.832,119.34 95.5,117.5 Z"/></g>
<g><path style="opacity:1" fill="#fffcf4" d="M 100.5,123.5 C 106.033,122.921 108.033,125.255 106.5,130.5C 99.742,132.575 97.742,130.242 100.5,123.5 Z"/></g>
<g><path style="opacity:1" fill="#334e62" d="M 77.5,161.5 C 74.8333,161.5 72.1667,161.5 69.5,161.5C 66.1501,161.335 62.8168,161.502 59.5,162C 59,162.5 58.5,163 58,163.5C 58.7667,172.054 59.2667,180.387 59.5,188.5C 58.4086,191.428 56.4086,193.594 53.5,195C 50.1832,195.498 46.8499,195.665 43.5,195.5C 41.1652,193.306 39.3319,190.639 38,187.5C 37.5046,184.469 37.6713,181.469 38.5,178.5C 40.3245,174.014 43.6578,171.348 48.5,170.5C 46.8885,165.282 47.3885,160.282 50,155.5C 53.4565,153.033 56.9565,151.033 60.5,149.5C 61.1665,144.651 61.8332,139.651 62.5,134.5C 73.8855,139.9 78.8855,148.9 77.5,161.5 Z"/></g>
<g><path style="opacity:1" fill="#334e63" d="M 140.5,157.5 C 142.326,163.277 141.659,168.61 138.5,173.5C 135.896,175.782 132.896,177.116 129.5,177.5C 130.058,173.989 130.724,170.489 131.5,167C 131.167,165.833 130.833,164.667 130.5,163.5C 128.68,164.883 126.68,165.883 124.5,166.5C 121.833,166.5 119.167,166.5 116.5,166.5C 116.5,165.5 116.5,164.5 116.5,163.5C 118.978,151.69 125.978,144.023 137.5,140.5C 136.482,145.904 135.149,151.238 133.5,156.5C 135.743,157.474 138.076,157.808 140.5,157.5 Z"/></g>
<g><path style="opacity:1" fill="#345065" d="M 87.5,151.5 C 87.9528,152.458 88.6195,153.292 89.5,154C 93.5,154.5 97.5,155 101.5,155.5C 105.589,155.979 107.922,154.312 108.5,150.5C 113.343,153.553 113.676,157.053 109.5,161C 101.047,161.402 92.714,160.569 84.5,158.5C 81.5717,154.757 81.905,151.424 85.5,148.5C 86.1757,149.602 86.8423,150.602 87.5,151.5 Z"/></g>
<g><path style="opacity:1" fill="#b9cfe1" d="M 108.5,150.5 C 107.922,154.312 105.589,155.979 101.5,155.5C 97.5,155 93.5,154.5 89.5,154C 88.6195,153.292 87.9528,152.458 87.5,151.5C 87.5,150.5 87.5,149.5 87.5,148.5C 94.6037,148.577 101.604,149.244 108.5,150.5 Z"/></g>
<g><path style="opacity:1" fill="#3a6689" d="M 69.5,161.5 C 72.1667,161.5 74.8333,161.5 77.5,161.5C 88.7767,163.11 100.11,164.444 111.5,165.5C 113.455,165.276 115.121,164.609 116.5,163.5C 116.5,164.5 116.5,165.5 116.5,166.5C 119.167,166.5 121.833,166.5 124.5,166.5C 122.281,172.717 118.281,177.384 112.5,180.5C 105.584,169.882 96.2503,167.049 84.5,172C 81.8334,173.862 79.5001,176.028 77.5,178.5C 74.4474,175.61 71.9474,172.276 70,168.5C 69.5034,166.19 69.3367,163.857 69.5,161.5 Z"/></g>
<g><path style="opacity:1" fill="#43759c" d="M 138.5,173.5 C 139.11,174.391 139.443,175.391 139.5,176.5C 133.083,177.919 129.416,181.919 128.5,188.5C 127.883,188.611 127.383,188.944 127,189.5C 126.162,192.852 125.329,196.185 124.5,199.5C 120.116,199.826 115.783,199.492 111.5,198.5C 113.714,192.604 114.047,186.604 112.5,180.5C 118.281,177.384 122.281,172.717 124.5,166.5C 126.68,165.883 128.68,164.883 130.5,163.5C 130.833,164.667 131.167,165.833 131.5,167C 130.724,170.489 130.058,173.989 129.5,177.5C 132.896,177.116 135.896,175.782 138.5,173.5 Z"/></g>
<g><path style="opacity:0.957" fill="#abbecc" d="M 28.5,177.5 C 25.4533,178.183 22.4533,179.183 19.5,180.5C 15.7193,179.789 12.7193,180.955 10.5,184C 7.76954,184.728 5.10287,184.562 2.5,183.5C 2.33319,177.44 5.33319,173.274 11.5,171C 16.4398,169.959 21.1065,170.626 25.5,173C 27.1412,174.129 28.1412,175.629 28.5,177.5 Z"/></g>
<g><path style="opacity:1" fill="#43759d" d="M 69.5,161.5 C 69.3367,163.857 69.5034,166.19 70,168.5C 71.9474,172.276 74.4474,175.61 77.5,178.5C 74.8374,185.141 74.8374,191.808 77.5,198.5C 73.2172,199.492 68.8839,199.826 64.5,199.5C 63.3406,195.535 62.1739,191.535 61,187.5C 60.6174,188.056 60.1174,188.389 59.5,188.5C 59.2667,180.387 58.7667,172.054 58,163.5C 58.5,163 59,162.5 59.5,162C 62.8168,161.502 66.1501,161.335 69.5,161.5 Z"/></g>
<g><path style="opacity:1" fill="#4f89b6" d="M 28.5,177.5 C 30.905,177.866 33.2383,178.533 35.5,179.5C 36.5837,179.315 37.5837,178.982 38.5,178.5C 37.6713,181.469 37.5046,184.469 38,187.5C 39.3319,190.639 41.1652,193.306 43.5,195.5C 39.0193,195.968 34.686,196.968 30.5,198.5C 26.9153,198.848 23.582,198.181 20.5,196.5C 15.6426,191.484 15.3092,186.151 19.5,180.5C 22.4533,179.183 25.4533,178.183 28.5,177.5 Z"/></g>
<g><path style="opacity:1" fill="#407096" d="M 46.5,179.5 C 54.0224,179.67 56.0224,183.003 52.5,189.5C 45.5502,192.046 42.7169,189.713 44,182.5C 44.6979,181.309 45.5313,180.309 46.5,179.5 Z"/></g>
<g><path style="opacity:1" fill="#324b5f" d="M 112.5,180.5 C 114.047,186.604 113.714,192.604 111.5,198.5C 115.783,199.492 120.116,199.826 124.5,199.5C 124.5,202.5 124.5,205.5 124.5,208.5C 104.5,208.5 84.5,208.5 64.5,208.5C 64.5,205.5 64.5,202.5 64.5,199.5C 68.8839,199.826 73.2172,199.492 77.5,198.5C 74.8374,191.808 74.8374,185.141 77.5,178.5C 79.5001,176.028 81.8334,173.862 84.5,172C 96.2503,167.049 105.584,169.882 112.5,180.5 Z"/></g>
<g><path style="opacity:1" fill="#abbecc" d="M 169.5,188.5 C 166.547,187.183 163.547,186.183 160.5,185.5C 168.866,176.235 177.366,176.235 186,185.5C 187.301,187.365 187.635,189.365 187,191.5C 184.733,192.289 182.4,192.956 180,193.5C 177.772,189.304 174.272,187.637 169.5,188.5 Z"/></g>
<g><path style="opacity:1" fill="#528ebd" d="M 160.5,185.5 C 163.547,186.183 166.547,187.183 169.5,188.5C 173.716,194.435 173.383,200.102 168.5,205.5C 168.167,205.5 167.833,205.5 167.5,205.5C 166.004,202.735 163.67,200.901 160.5,200C 159.298,196.632 156.965,194.466 153.5,193.5C 153.167,193 152.833,192.5 152.5,192C 153.414,190.594 154.08,189.094 154.5,187.5C 156.579,187.029 158.579,186.363 160.5,185.5 Z"/></g>
<g><path style="opacity:1" fill="#f76294" d="M 93.5,177.5 C 97.3722,179.193 100.872,181.526 104,184.5C 103.668,188.838 102.502,193.004 100.5,197C 96.2452,197.796 92.0785,197.629 88,196.5C 86.8333,193 85.6667,189.5 84.5,186C 87.3311,183.003 90.3311,180.169 93.5,177.5 Z"/></g>
<g><path style="opacity:1" fill="#324b5f" d="M 139.5,176.5 C 146.392,175.732 150.392,178.732 151.5,185.5C 151.785,192.614 148.785,197.614 142.5,200.5C 133.795,201.125 129.129,197.125 128.5,188.5C 129.416,181.919 133.083,177.919 139.5,176.5 Z"/></g>
<g><path style="opacity:1" fill="#3f7096" d="M 136.5,184.5 C 144.933,183.417 147.266,186.584 143.5,194C 134.812,195.481 132.479,192.314 136.5,184.5 Z"/></g>
<g><path style="opacity:1" fill="#487ca5" d="M 151.5,185.5 C 152.71,185.932 153.71,186.599 154.5,187.5C 154.08,189.094 153.414,190.594 152.5,192C 152.833,192.5 153.167,193 153.5,193.5C 156.965,194.466 159.298,196.632 160.5,200C 163.67,200.901 166.004,202.735 167.5,205.5C 164.345,205.99 161.345,206.656 158.5,207.5C 152.933,205.717 147.599,203.383 142.5,200.5C 148.785,197.614 151.785,192.614 151.5,185.5 Z"/></g>
<g><path style="opacity:1" fill="#a4b5c3" d="M 20.5,196.5 C 23.582,198.181 26.9153,198.848 30.5,198.5C 24.8513,207.983 17.1846,209.817 7.5,204C 1.62407,198.894 2.62407,195.727 10.5,194.5C 12.2077,194.703 13.541,195.536 14.5,197C 16.7116,197.789 18.7116,197.622 20.5,196.5 Z"/></g>
<g><path style="opacity:1" fill="#a5b7c5" d="M 158.5,207.5 C 161.345,206.656 164.345,205.99 167.5,205.5C 167.833,205.5 168.167,205.5 168.5,205.5C 172.321,206.186 175.488,205.186 178,202.5C 180.515,203.115 182.848,204.115 185,205.5C 185.624,207.464 185.124,209.131 183.5,210.5C 174.117,217.785 165.784,216.785 158.5,207.5 Z"/></g>
<g><path style="opacity:1" fill="#5190c0" d="M 124.5,209.5 C 124.296,212.518 123.963,215.518 123.5,218.5C 114.887,219.442 106.221,219.775 97.5,219.5C 96.1667,219.5 94.8333,219.5 93.5,219.5C 86.1667,219.5 78.8333,219.5 71.5,219.5C 71.3841,216.14 71.0508,212.807 70.5,209.5C 88.5,209.5 106.5,209.5 124.5,209.5 Z"/></g>
<g><path style="opacity:1" fill="#487ba4" d="M 64.5,208.5 C 84.5,208.5 104.5,208.5 124.5,208.5C 124.5,208.833 124.5,209.167 124.5,209.5C 106.5,209.5 88.5,209.5 70.5,209.5C 71.0508,212.807 71.3841,216.14 71.5,219.5C 78.8333,219.5 86.1667,219.5 93.5,219.5C 93.552,221.903 93.2186,224.236 92.5,226.5C 88.7926,222.567 84.9593,222.567 81,226.5C 80.5014,230.152 80.3347,233.818 80.5,237.5C 76.5,237.5 72.5,237.5 68.5,237.5C 69.2647,229.779 68.0981,222.446 65,215.5C 64.5034,213.19 64.3367,210.857 64.5,208.5 Z"/></g>
<g><path style="opacity:1" fill="#477aa2" d="M 123.5,218.5 C 122.74,224.804 122.407,231.137 122.5,237.5C 118.5,237.5 114.5,237.5 110.5,237.5C 111.026,232.891 110.359,228.557 108.5,224.5C 104.454,222.741 101.121,223.408 98.5,226.5C 97.7814,224.236 97.448,221.903 97.5,219.5C 106.221,219.775 114.887,219.442 123.5,218.5 Z"/></g>
<g><path style="opacity:1" fill="#314a5d" d="M 92.5,226.5 C 93.4938,235.986 93.8271,245.652 93.5,255.5C 81.5,255.5 69.5,255.5 57.5,255.5C 57.3367,253.143 57.5034,250.81 58,248.5C 61.7316,244.938 65.2316,241.271 68.5,237.5C 72.5,237.5 76.5,237.5 80.5,237.5C 80.3347,233.818 80.5014,230.152 81,226.5C 84.9593,222.567 88.7926,222.567 92.5,226.5 Z"/></g>
<g><path style="opacity:1" fill="#314a5d" d="M 122.5,237.5 C 125.768,241.271 129.268,244.938 133,248.5C 133.497,250.81 133.663,253.143 133.5,255.5C 121.5,255.5 109.5,255.5 97.5,255.5C 97.1729,245.652 97.5062,235.986 98.5,226.5C 101.121,223.408 104.454,222.741 108.5,224.5C 110.359,228.557 111.026,232.891 110.5,237.5C 114.5,237.5 118.5,237.5 122.5,237.5 Z"/></g>
</svg>
