<?xml version="1.0" encoding="UTF-8"?>
<!DOCTYPE svg PUBLIC "-//W3C//DTD SVG 1.1//EN" "http://www.w3.org/Graphics/SVG/1.1/DTD/svg11.dtd">
<svg xmlns="http://www.w3.org/2000/svg" version="1.1" width="192px" height="256px" style="shape-rendering:geometricPrecision; text-rendering:geometricPrecision; image-rendering:optimizeQuality; fill-rule:evenodd; clip-rule:evenodd" xmlns:xlink="http://www.w3.org/1999/xlink">
<g><path style="opacity:1" fill="#474b52" d="M 144.5,106.5 C 137.23,88.7668 123.896,78.6002 104.5,76C 78.1875,73.319 58.8542,83.4857 46.5,106.5C 45.52,109.086 45.1866,111.753 45.5,114.5C 45.0698,88.0495 58.0698,71.8829 84.5,66C 108.366,61.6098 126.866,69.4432 140,89.5C 142.577,94.8871 144.077,100.554 144.5,106.5 Z"/></g>
<g><path style="opacity:1" fill="#3d3f42" d="M 144.5,106.5 C 144.5,107.833 144.5,109.167 144.5,110.5C 142.417,109.412 140.251,108.412 138,107.5C 137.601,107.728 137.435,108.062 137.5,108.5C 136.676,112.312 136.176,116.312 136,120.5C 135.283,121.044 134.783,121.711 134.5,122.5C 132.801,122.66 131.134,122.494 129.5,122C 128.244,121.583 127.577,120.75 127.5,119.5C 127.5,116.5 127.5,113.5 127.5,110.5C 121.419,110.486 115.419,109.819 109.5,108.5C 109.5,109.5 109.5,110.5 109.5,111.5C 114.167,111.5 118.833,111.5 123.5,111.5C 123.5,112.833 123.5,114.167 123.5,115.5C 122.5,115.5 121.5,115.5 120.5,115.5C 106.288,117.705 94.2884,113.705 84.5,103.5C 80.7868,107.021 76.4535,109.521 71.5,111C 75.8096,110.679 80.1429,110.179 84.5,109.5C 84.5,110.833 84.5,112.167 84.5,113.5C 78.5063,114.832 72.5063,116.165 66.5,117.5C 66.5,115.833 66.5,114.167 66.5,112.5C 65.5,112.5 64.5,112.5 63.5,112.5C 63.9709,116.356 64.6376,120.189 65.5,124C 65.4753,125.876 64.8086,127.376 63.5,128.5C 58.2576,129.562 55.2576,127.562 54.5,122.5C 54.8515,119.927 54.3515,117.594 53,115.5C 50.6721,116.999 48.5054,118.666 46.5,120.5C 45.5386,118.735 45.2053,116.735 45.5,114.5C 45.1866,111.753 45.52,109.086 46.5,106.5C 58.8542,83.4857 78.1875,73.319 104.5,76C 123.896,78.6002 137.23,88.7668 144.5,106.5 Z"/></g>
<g><path style="opacity:1" fill="#6e9db8" d="M 88.5,81.5 C 100.711,80.1888 112.378,82.0221 123.5,87C 126.017,89.3494 128.35,91.8494 130.5,94.5C 127.447,95.1647 124.447,94.6647 121.5,93C 101.909,89.7922 82.9093,91.7922 64.5,99C 62.6667,100.167 60.8333,101.333 59,102.5C 58.3333,101.167 58.3333,99.8333 59,98.5C 62.6033,92.8961 67.4366,88.7294 73.5,86C 78.5351,84.1506 83.5351,82.6506 88.5,81.5 Z"/></g>
<g><path style="opacity:1" fill="#bd7857" d="M 120.5,115.5 C 121.568,116.434 122.901,116.768 124.5,116.5C 124.215,114.712 124.548,113.045 125.5,111.5C 126.168,114.306 126.834,116.972 127.5,119.5C 127.577,120.75 128.244,121.583 129.5,122C 131.134,122.494 132.801,122.66 134.5,122.5C 134.881,126.119 135.881,129.452 137.5,132.5C 138.73,134.297 139.396,136.297 139.5,138.5C 138.005,138.989 136.671,139.655 135.5,140.5C 132.739,149.036 127.405,155.369 119.5,159.5C 105.952,166.311 91.9516,167.311 77.5,162.5C 75.2088,161.235 72.8754,159.902 70.5,158.5C 66.9515,155.116 63.9515,151.282 61.5,147C 59.8659,146.506 58.1992,146.34 56.5,146.5C 57.3686,144.283 57.702,141.95 57.5,139.5C 58.6491,139.209 59.3158,138.376 59.5,137C 58.8405,134.538 58.5072,132.038 58.5,129.5C 60.4147,129.784 62.0813,129.451 63.5,128.5C 64.8086,127.376 65.4753,125.876 65.5,124C 64.6376,120.189 63.9709,116.356 63.5,112.5C 64.5,112.5 65.5,112.5 66.5,112.5C 66.5,114.167 66.5,115.833 66.5,117.5C 72.5063,116.165 78.5063,114.832 84.5,113.5C 84.5,112.167 84.5,110.833 84.5,109.5C 80.1429,110.179 75.8096,110.679 71.5,111C 76.4535,109.521 80.7868,107.021 84.5,103.5C 94.2884,113.705 106.288,117.705 120.5,115.5 Z"/></g>
<g><path style="opacity:1" fill="#b67556" d="M 144.5,110.5 C 151.426,117.696 152.093,125.362 146.5,133.5C 146.384,129.725 144.384,128.058 140.5,128.5C 144.819,123.39 144.153,118.723 138.5,114.5C 137.534,112.604 137.201,110.604 137.5,108.5C 137.435,108.062 137.601,107.728 138,107.5C 140.251,108.412 142.417,109.412 144.5,110.5 Z"/></g>
<g><path style="opacity:1" fill="#875f4d" d="M 127.5,119.5 C 126.834,116.972 126.168,114.306 125.5,111.5C 124.548,113.045 124.215,114.712 124.5,116.5C 122.901,116.768 121.568,116.434 120.5,115.5C 121.5,115.5 122.5,115.5 123.5,115.5C 123.5,114.167 123.5,112.833 123.5,111.5C 118.833,111.5 114.167,111.5 109.5,111.5C 109.5,110.5 109.5,109.5 109.5,108.5C 115.419,109.819 121.419,110.486 127.5,110.5C 127.5,113.5 127.5,116.5 127.5,119.5 Z"/></g>
<g><path style="opacity:1" fill="#a45f3f" d="M 137.5,108.5 C 137.201,110.604 137.534,112.604 138.5,114.5C 144.153,118.723 144.819,123.39 140.5,128.5C 138.088,128.694 137.088,130.027 137.5,132.5C 135.881,129.452 134.881,126.119 134.5,122.5C 134.783,121.711 135.283,121.044 136,120.5C 136.176,116.312 136.676,112.312 137.5,108.5 Z"/></g>
<g><path style="opacity:1" fill="#484647" d="M 116.5,120.5 C 119.304,119.362 122.304,119.195 125.5,120C 123.393,121.264 122.393,123.097 122.5,125.5C 121.135,123.14 119.135,121.473 116.5,120.5 Z"/></g>
<g><path style="opacity:1" fill="#f2edeb" d="M 116.5,120.5 C 119.135,121.473 121.135,123.14 122.5,125.5C 123.317,131.875 120.65,135.875 114.5,137.5C 112.829,137.332 111.496,136.665 110.5,135.5C 104.27,131.317 103.936,126.483 109.5,121C 111.81,120.503 114.143,120.337 116.5,120.5 Z"/></g>
<g><path style="opacity:1" fill="#434548" d="M 110.5,135.5 C 106.11,130.195 106.61,125.528 112,121.5C 117.54,124.042 118.874,128.042 116,133.5C 114.556,135.155 112.722,135.822 110.5,135.5 Z"/></g>
<g><path style="opacity:1" fill="#b37354" d="M 54.5,122.5 C 50.5831,126.073 49.5831,130.406 51.5,135.5C 53.099,135.232 54.4324,135.566 55.5,136.5C 51.3029,136.194 49.3029,138.194 49.5,142.5C 42.9041,135.994 41.9041,128.66 46.5,120.5C 48.5054,118.666 50.6721,116.999 53,115.5C 54.3515,117.594 54.8515,119.927 54.5,122.5 Z"/></g>
<g><path style="opacity:1" fill="#a45e3f" d="M 54.5,122.5 C 55.2576,127.562 58.2576,129.562 63.5,128.5C 62.0813,129.451 60.4147,129.784 58.5,129.5C 58.5072,132.038 58.8405,134.538 59.5,137C 59.3158,138.376 58.6491,139.209 57.5,139.5C 57.573,137.973 56.9063,136.973 55.5,136.5C 54.4324,135.566 53.099,135.232 51.5,135.5C 49.5831,130.406 50.5831,126.073 54.5,122.5 Z"/></g>
<g><path style="opacity:1" fill="#f4f1ef" d="M 76.5,123.5 C 83.4901,121.838 87.4901,124.505 88.5,131.5C 88.5328,134.102 87.5328,136.102 85.5,137.5C 87.295,132.894 86.6284,128.727 83.5,125C 80.7825,123.967 78.9492,124.8 78,127.5C 75.7239,134.075 77.8906,137.742 84.5,138.5C 84.3893,139.117 84.056,139.617 83.5,140C 76.2075,141.022 72.5408,137.855 72.5,130.5C 72.9613,127.697 74.2947,125.363 76.5,123.5 Z"/></g>
<g><path style="opacity:1" fill="#4e4a4a" d="M 76.5,123.5 C 74.2947,125.363 72.9613,127.697 72.5,130.5C 71.0686,128.563 69.4019,126.73 67.5,125C 70.3508,123.711 73.3508,123.211 76.5,123.5 Z"/></g>
<g><path style="opacity:1" fill="#404245" d="M 85.5,137.5 C 84.8333,137.5 84.5,137.833 84.5,138.5C 77.8906,137.742 75.7239,134.075 78,127.5C 78.9492,124.8 80.7825,123.967 83.5,125C 86.6284,128.727 87.295,132.894 85.5,137.5 Z"/></g>
<g><path style="opacity:1" fill="#de975d" d="M 140.5,128.5 C 144.384,128.058 146.384,129.725 146.5,133.5C 149.903,138.274 148.903,141.274 143.5,142.5C 141.726,141.63 140.393,140.297 139.5,138.5C 139.396,136.297 138.73,134.297 137.5,132.5C 137.088,130.027 138.088,128.694 140.5,128.5 Z"/></g>
<g><path style="opacity:1" fill="#955435" d="M 93.5,132.5 C 96.5184,132.335 99.5184,132.502 102.5,133C 105.192,135.632 104.859,137.966 101.5,140C 98.8333,140.667 96.1667,140.667 93.5,140C 91.011,137.566 91.011,135.066 93.5,132.5 Z"/></g>
<g><path style="opacity:1" fill="#e59b5d" d="M 55.5,136.5 C 56.9063,136.973 57.573,137.973 57.5,139.5C 57.702,141.95 57.3686,144.283 56.5,146.5C 56.2204,150.225 54.2204,151.392 50.5,150C 49.9152,148.698 49.2485,147.531 48.5,146.5C 49.2341,145.292 49.5674,143.959 49.5,142.5C 49.3029,138.194 51.3029,136.194 55.5,136.5 Z"/></g>
<g><path style="opacity:1" fill="#4a4d53" d="M 139.5,138.5 C 140.393,140.297 141.726,141.63 143.5,142.5C 146.231,148.063 149.565,153.229 153.5,158C 152.928,160.074 151.595,161.24 149.5,161.5C 150.303,160.577 150.47,159.577 150,158.5C 144.516,152.868 139.683,146.868 135.5,140.5C 136.671,139.655 138.005,138.989 139.5,138.5 Z"/></g>
<g><path style="opacity:1" fill="#a86140" d="M 95.5,145.5 C 101.651,143.844 105.317,146.01 106.5,152C 103.847,160.288 99.3469,161.455 93,155.5C 92.0239,151.673 92.8572,148.34 95.5,145.5 Z"/></g>
<g><path style="opacity:1" fill="#3c3d40" d="M 48.5,146.5 C 49.2485,147.531 49.9152,148.698 50.5,150C 54.2204,151.392 56.2204,150.225 56.5,146.5C 58.1992,146.34 59.8659,146.506 61.5,147C 63.9515,151.282 66.9515,155.116 70.5,158.5C 67.3033,158.405 64.3033,159.072 61.5,160.5C 60.8333,160.833 60.1667,161.167 59.5,161.5C 53.5746,161.808 47.7412,161.475 42,160.5C 41.3333,158.833 41.3333,157.167 42,155.5C 44.3852,152.621 46.5518,149.621 48.5,146.5 Z"/></g>
<g><path style="opacity:1" fill="#37393b" d="M 135.5,140.5 C 139.683,146.868 144.516,152.868 150,158.5C 150.47,159.577 150.303,160.577 149.5,161.5C 146.5,161.5 143.5,161.5 140.5,161.5C 140.5,162.5 140.5,163.5 140.5,164.5C 138.776,161.458 136.109,159.625 132.5,159C 128.105,158.86 123.771,159.36 119.5,160.5C 119.5,160.167 119.5,159.833 119.5,159.5C 127.405,155.369 132.739,149.036 135.5,140.5 Z"/></g>
<g><path style="opacity:1" fill="#36b06f" d="M 70.5,158.5 C 72.8754,159.902 75.2088,161.235 77.5,162.5C 77.5,162.833 77.5,163.167 77.5,163.5C 76.2252,167.22 76.7252,170.887 79,174.5C 81.8249,177.476 84.9915,179.809 88.5,181.5C 85.0344,182.077 81.7011,183.077 78.5,184.5C 75.1091,181.615 71.7758,178.448 68.5,175C 66.5643,174.187 64.5643,173.687 62.5,173.5C 62.9641,180.661 64.6308,187.494 67.5,194C 68.448,194.483 69.448,194.649 70.5,194.5C 69.788,191.125 69.288,187.791 69,184.5C 74.7778,188.394 77.6112,193.727 77.5,200.5C 74.8333,200.5 72.1667,200.5 69.5,200.5C 69.5,201.5 69.5,202.5 69.5,203.5C 69.1667,203.5 68.8333,203.5 68.5,203.5C 65.7022,202.294 63.5355,200.294 62,197.5C 58.9731,185.176 58.8064,172.843 61.5,160.5C 64.3033,159.072 67.3033,158.405 70.5,158.5 Z"/></g>
<g><path style="opacity:1" fill="#9a6248" d="M 119.5,159.5 C 119.5,159.833 119.5,160.167 119.5,160.5C 119.5,161.167 119.5,161.833 119.5,162.5C 115.913,172.138 108.913,177.138 98.5,177.5C 88.65,177.077 81.65,172.41 77.5,163.5C 77.5,163.167 77.5,162.833 77.5,162.5C 91.9516,167.311 105.952,166.311 119.5,159.5 Z"/></g>
<g><path style="opacity:1" fill="#3aae71" d="M 140.5,164.5 C 140.666,172.174 140.5,179.841 140,187.5C 138.632,191.225 138.132,194.891 138.5,198.5C 136.046,197.773 133.713,196.773 131.5,195.5C 134.246,189.48 136.246,183.146 137.5,176.5C 137.154,175.304 136.654,175.304 136,176.5C 135.365,172.898 134.032,172.232 132,174.5C 131.667,174.167 131.333,173.833 131,173.5C 127.052,177.535 122.885,181.202 118.5,184.5C 114.859,183.098 111.192,182.098 107.5,181.5C 117.416,178.635 121.416,172.302 119.5,162.5C 119.5,161.833 119.5,161.167 119.5,160.5C 123.771,159.36 128.105,158.86 132.5,159C 136.109,159.625 138.776,161.458 140.5,164.5 Z"/></g>
<g><path style="opacity:1" fill="#dadad9" d="M 119.5,162.5 C 121.416,172.302 117.416,178.635 107.5,181.5C 101.167,182.833 94.8333,182.833 88.5,181.5C 84.9915,179.809 81.8249,177.476 79,174.5C 76.7252,170.887 76.2252,167.22 77.5,163.5C 81.65,172.41 88.65,177.077 98.5,177.5C 108.913,177.138 115.913,172.138 119.5,162.5 Z"/></g>
<g><path style="opacity:1" fill="#3ea870" d="M 61.5,160.5 C 58.8064,172.843 58.9731,185.176 62,197.5C 63.5355,200.294 65.7022,202.294 68.5,203.5C 66.9236,204.143 65.5903,205.143 64.5,206.5C 61.8373,204.911 59.8373,202.578 58.5,199.5C 59.1667,198.5 59.8333,197.5 60.5,196.5C 57.6016,186.033 56.7682,175.366 58,164.5C 58.5133,163.473 59.0133,162.473 59.5,161.5C 60.1667,161.167 60.8333,160.833 61.5,160.5 Z"/></g>
<g><path style="opacity:1" fill="#3cbc79" d="M 131.5,195.5 C 129.883,194.962 128.216,194.629 126.5,194.5C 127.027,191.091 127.527,187.758 128,184.5C 122.222,188.394 119.389,193.727 119.5,200.5C 105.5,200.5 91.5,200.5 77.5,200.5C 77.6112,193.727 74.7778,188.394 69,184.5C 69.288,187.791 69.788,191.125 70.5,194.5C 69.448,194.649 68.448,194.483 67.5,194C 64.6308,187.494 62.9641,180.661 62.5,173.5C 64.5643,173.687 66.5643,174.187 68.5,175C 71.7758,178.448 75.1091,181.615 78.5,184.5C 78.4142,185.496 78.7476,186.329 79.5,187C 92.1494,190.202 104.816,190.202 117.5,187C 118.252,186.329 118.586,185.496 118.5,184.5C 122.885,181.202 127.052,177.535 131,173.5C 131.333,173.833 131.667,174.167 132,174.5C 134.032,172.232 135.365,172.898 136,176.5C 136.654,175.304 137.154,175.304 137.5,176.5C 136.246,183.146 134.246,189.48 131.5,195.5 Z"/></g>
<g><path style="opacity:1" fill="#26a160" d="M 88.5,181.5 C 94.8333,182.833 101.167,182.833 107.5,181.5C 111.192,182.098 114.859,183.098 118.5,184.5C 118.586,185.496 118.252,186.329 117.5,187C 104.816,190.202 92.1494,190.202 79.5,187C 78.7476,186.329 78.4142,185.496 78.5,184.5C 81.7011,183.077 85.0344,182.077 88.5,181.5 Z"/></g>
<g><path style="opacity:1" fill="#27a260" d="M 131.5,195.5 C 133.713,196.773 136.046,197.773 138.5,198.5C 139.465,199.721 139.298,201.054 138,202.5C 137.124,204.635 135.624,205.969 133.5,206.5C 131.967,204.755 129.967,203.755 127.5,203.5C 127.5,202.5 127.5,201.5 127.5,200.5C 124.833,200.5 122.167,200.5 119.5,200.5C 119.389,193.727 122.222,188.394 128,184.5C 127.527,187.758 127.027,191.091 126.5,194.5C 128.216,194.629 129.883,194.962 131.5,195.5 Z"/></g>
<g><path style="opacity:1" fill="#3b3c3f" d="M 77.5,200.5 C 91.5,200.5 105.5,200.5 119.5,200.5C 122.167,200.5 124.833,200.5 127.5,200.5C 127.5,201.5 127.5,202.5 127.5,203.5C 127.5,204.833 127.5,206.167 127.5,207.5C 126.596,208.209 126.263,209.209 126.5,210.5C 108.167,210.5 89.8333,210.5 71.5,210.5C 70.8333,208.167 70.1667,205.833 69.5,203.5C 69.5,202.5 69.5,201.5 69.5,200.5C 72.1667,200.5 74.8333,200.5 77.5,200.5 Z"/></g>
<g><path style="opacity:1" fill="#ad7356" d="M 127.5,203.5 C 129.967,203.755 131.967,204.755 133.5,206.5C 131.844,208.46 130.177,210.46 128.5,212.5C 127.549,211.081 127.216,209.415 127.5,207.5C 127.5,206.167 127.5,204.833 127.5,203.5 Z"/></g>
<g><path style="opacity:1" fill="#a87156" d="M 68.5,203.5 C 68.8333,203.5 69.1667,203.5 69.5,203.5C 70.1667,205.833 70.8333,208.167 71.5,210.5C 71.5,211.833 71.5,213.167 71.5,214.5C 69.1667,211.833 66.8333,209.167 64.5,206.5C 65.5903,205.143 66.9236,204.143 68.5,203.5 Z"/></g>
<g><path style="opacity:1" fill="#6366bd" d="M 127.5,207.5 C 127.216,209.415 127.549,211.081 128.5,212.5C 127.715,217.447 127.049,222.447 126.5,227.5C 120.167,227.5 113.833,227.5 107.5,227.5C 107.167,224.833 106.833,222.167 106.5,219.5C 101.833,219.5 97.1667,219.5 92.5,219.5C 92.1667,222.167 91.8333,224.833 91.5,227.5C 85.1667,227.5 78.8333,227.5 72.5,227.5C 71.7051,223.215 71.3718,218.881 71.5,214.5C 71.5,213.167 71.5,211.833 71.5,210.5C 89.8333,210.5 108.167,210.5 126.5,210.5C 126.263,209.209 126.596,208.209 127.5,207.5 Z"/></g>
<g><path style="opacity:1" fill="#b97656" d="M 72.5,227.5 C 78.8333,227.5 85.1667,227.5 91.5,227.5C 91.5,230.833 91.5,234.167 91.5,237.5C 85.1667,237.5 78.8333,237.5 72.5,237.5C 72.5,234.167 72.5,230.833 72.5,227.5 Z"/></g>
<g><path style="opacity:1" fill="#b97656" d="M 107.5,227.5 C 113.833,227.5 120.167,227.5 126.5,227.5C 126.5,230.833 126.5,234.167 126.5,237.5C 120.167,237.5 113.833,237.5 107.5,237.5C 107.5,234.167 107.5,230.833 107.5,227.5 Z"/></g>
<g><path style="opacity:1" fill="#afc1d1" d="M 107.5,237.5 C 113.833,237.5 120.167,237.5 126.5,237.5C 128.047,243.042 131.38,247.042 136.5,249.5C 126.833,249.5 117.167,249.5 107.5,249.5C 107.5,245.5 107.5,241.5 107.5,237.5 Z"/></g>
<g><path style="opacity:1" fill="#aec1d0" d="M 72.5,237.5 C 78.8333,237.5 85.1667,237.5 91.5,237.5C 91.5,241.5 91.5,245.5 91.5,249.5C 81.8333,249.5 72.1667,249.5 62.5,249.5C 67.6199,247.042 70.9532,243.042 72.5,237.5 Z"/></g>
<g><path style="opacity:0.995" fill="#d5d5d5" d="M 62.5,249.5 C 72.1667,249.5 81.8333,249.5 91.5,249.5C 91.5,251.5 91.5,253.5 91.5,255.5C 81.5,255.5 71.5,255.5 61.5,255.5C 61.2053,253.265 61.5386,251.265 62.5,249.5 Z"/></g>
<g><path style="opacity:0.995" fill="#d5d5d5" d="M 107.5,249.5 C 117.167,249.5 126.833,249.5 136.5,249.5C 137.461,251.265 137.795,253.265 137.5,255.5C 127.5,255.5 117.5,255.5 107.5,255.5C 107.5,253.5 107.5,251.5 107.5,249.5 Z"/></g>
</svg>
